                                                                        S      1
,,,29Hбалансирный_вал,22HAutodesk Inventor 2021,7Hunknown,G      1
32,38,7,99,15,,1.,2,2HMM,1,0.08,15H20210615.185527,0.01,10000.,5Hpanda,,G      2
11,0,15H20210615.000000;                                                G      3
     186       1                                                00000000D      1
     186            -235       1       0                               0D      2
     514       2                                                00010000D      3
     514                       2       1                               0D      4
     510       4                                                00010000D      5
     510            -235       1       1                               0D      6
     510       5                                                00010000D      7
     510            -235       1       1                               0D      8
     510       6                                                00010000D      9
     510            -235       1       1                               0D     10
     510       7                                                00010000D     11
     510            -235       1       1                               0D     12
     510       8                                                00010000D     13
     510            -235       1       1                               0D     14
     510       9                                                00010000D     15
     510            -235       1       1                               0D     16
     510      10                                                00010000D     17
     510            -235       1       1                               0D     18
     510      11                                                00010000D     19
     510            -235       1       1                               0D     20
     510      12                                                00010000D     21
     510            -235       1       1                               0D     22
     510      13                                                00010000D     23
     510            -235       1       1                               0D     24
     510      14                                                00010000D     25
     510            -235       1       1                               0D     26
     510      15                                                00010000D     27
     510            -235       1       1                               0D     28
     510      16                                                00010000D     29
     510            -235       1       1                               0D     30
     510      17                                                00010000D     31
     510            -235       1       1                               0D     32
     510      18                                                00010000D     33
     510            -235       1       1                               0D     34
     510      19                                                00010000D     35
     510            -235       1       1                               0D     36
     510      20                                                00010000D     37
     510            -235       1       1                               0D     38
     510      21                                                00010000D     39
     510            -235       1       1                               0D     40
     510      22                                                00010000D     41
     510            -235       1       1                               0D     42
     510      23                                                00010000D     43
     510            -235       1       1                               0D     44
     508      24                                                00010000D     45
     508                       1       1                               0D     46
     508      25                                                00010000D     47
     508                       1       1                               0D     48
     508      26                                                00010000D     49
     508                       2       1                               0D     50
     508      28                                                00010000D     51
     508                       1       1                               0D     52
     508      29                                                00010000D     53
     508                       2       1                               0D     54
     508      31                                                00010000D     55
     508                       1       1                               0D     56
     508      32                                                00010000D     57
     508                       1       1                               0D     58
     508      33                                                00010000D     59
     508                       1       1                               0D     60
     508      34                                                00010000D     61
     508                       1       1                               0D     62
     508      35                                                00010000D     63
     508                       1       1                               0D     64
     508      36                                                00010000D     65
     508                       2       1                               0D     66
     508      38                                                00010000D     67
     508                       2       1                               0D     68
     508      40                                                00010000D     69
     508                       1       1                               0D     70
     508      41                                                00010000D     71
     508                       1       1                               0D     72
     508      42                                                00010000D     73
     508                       2       1                               0D     74
     508      44                                                00010000D     75
     508                       1       1                               0D     76
     508      45                                                00010000D     77
     508                       1       1                               0D     78
     508      46                                                00010000D     79
     508                       1       1                               0D     80
     508      47                                                00010000D     81
     508                       2       1                               0D     82
     508      49                                                00010000D     83
     508                       1       1                               0D     84
     508      50                                                00010000D     85
     508                       2       1                               0D     86
     508      52                                                00010000D     87
     508                       1       1                               0D     88
     508      53                                                00010000D     89
     508                       1       1                               0D     90
     126      54                                                00010000D     91
     126       0               5       0                               0D     92
     126      59                                                00010000D     93
     126       0               7       0                               0D     94
     126      66                                                00010000D     95
     126       0               5       0                               0D     96
     126      71                                                00010000D     97
     126       0               7       0                               0D     98
     126      78                                                00010000D     99
     126       0               5       0                               0D    100
     126      83                                                00010000D    101
     126       0               7       0                               0D    102
     126      90                                                00010000D    103
     126       0               2       0                               0D    104
     126      92                                                00010000D    105
     126       0               2       0                               0D    106
     126      94                                                00010000D    107
     126       0               5       0                               0D    108
     126      99                                                00010000D    109
     126       0               7       0                               0D    110
     126     106                                                00010000D    111
     126       0               5       0                               0D    112
     126     111                                                00010000D    113
     126       0               2       0                               0D    114
     126     113                                                00010000D    115
     126       0               5       0                               0D    116
     126     118                                                00010000D    117
     126       0               2       0                               0D    118
     126     120                                                00010000D    119
     126       0               2       0                               0D    120
     126     122                                                00010000D    121
     126       0               2       0                               0D    122
     126     124                                                00010000D    123
     126       0               5       0                               0D    124
     126     129                                                00010000D    125
     126       0               7       0                               0D    126
     126     136                                                00010000D    127
     126       0               2       0                               0D    128
     126     138                                                00010000D    129
     126       0               2       0                               0D    130
     126     140                                                00010000D    131
     126       0               5       0                               0D    132
     126     145                                                00010000D    133
     126       0               2       0                               0D    134
     126     147                                                00010000D    135
     126       0               2       0                               0D    136
     126     149                                                00010000D    137
     126       0               3       0                               0D    138
     126     152                                                00010000D    139
     126       0               2       0                               0D    140
     126     154                                                00010000D    141
     126       0               3       0                               0D    142
     126     157                                                00010000D    143
     126       0               2       0                               0D    144
     126     159                                                00010000D    145
     126       0               5       0                               0D    146
     126     164                                                00010000D    147
     126       0               7       0                               0D    148
     126     171                                                00010000D    149
     126       0               7       0                               0D    150
     126     178                                                00010000D    151
     126       0               2       0                               0D    152
     126     180                                                00010000D    153
     126       0               7       0                               0D    154
     126     187                                                00010000D    155
     126       0               2       0                               0D    156
     126     189                                                00010000D    157
     126       0               5       0                               0D    158
     126     194                                                00010000D    159
     126       0               3       0                               0D    160
     126     197                                                00010000D    161
     126       0               7       0                               0D    162
     126     204                                                00010000D    163
     126       0               2       0                               0D    164
     126     206                                                00010000D    165
     126       0               2       0                               0D    166
     126     208                                                00010000D    167
     126       0               5       0                               0D    168
     126     213                                                00010000D    169
     126       0               2       0                               0D    170
     126     215                                                00010000D    171
     126       0               6       0                               0D    172
     126     221                                                00010000D    173
     126       0               2       0                               0D    174
     126     223                                                00010000D    175
     126       0               2       0                               0D    176
     126     225                                                00010000D    177
     126       0               2       0                               0D    178
     126     227                                                00010000D    179
     126       0               2       0                               0D    180
     126     229                                                00010000D    181
     126       0               5       0                               0D    182
     126     234                                                00010000D    183
     126       0               2       0                               0D    184
     126     236                                                00010000D    185
     126       0               2       0                               0D    186
     126     238                                                00010000D    187
     126       0               2       0                               0D    188
     128     240                                                00010000D    189
     128       0    -235       3       0                               0D    190
     128     243                                                00010000D    191
     128       0    -235      13       0                               0D    192
     128     256                                                00010000D    193
     128       0    -235       3       0                               0D    194
     128     259                                                00010000D    195
     128       0    -235      12       0                               0D    196
     128     271                                                00010000D    197
     128       0    -235       7       0                               0D    198
     128     278                                                00010000D    199
     128       0    -235       3       0                               0D    200
     128     281                                                00010000D    201
     128       0    -235       4       0                               0D    202
     128     285                                                00010000D    203
     128       0    -235       7       0                               0D    204
     128     292                                                00010000D    205
     128       0    -235       4       0                               0D    206
     128     296                                                00010000D    207
     128       0    -235       4       0                               0D    208
     128     300                                                00010000D    209
     128       0    -235       3       0                               0D    210
     128     303                                                00010000D    211
     128       0    -235      12       0                               0D    212
     128     315                                                00010000D    213
     128       0    -235       3       0                               0D    214
     128     318                                                00010000D    215
     128       0    -235       8       0                               0D    216
     128     326                                                00010000D    217
     128       0    -235       7       0                               0D    218
     128     333                                                00010000D    219
     128       0    -235       3       0                               0D    220
     128     336                                                00010000D    221
     128       0    -235       8       0                               0D    222
     128     344                                                00010000D    223
     128       0    -235       3       0                               0D    224
     128     347                                                00010000D    225
     128       0    -235       4       0                               0D    226
     128     351                                                00010000D    227
     128       0    -235       3       0                               0D    228
     502     354                                                00010000D    229
     502                      11       1                               0D    230
     504     365                                                00010001D    231
     504                      14       1                               0D    232
     406     379                                                00000000D    233
     406                       1      15                               0D    234
     314     380                                                00000200D    235
     314                       1       0                               0D    236
186,3,1,0,0,1,233;                                                     1P      1
514,20,5,1,7,1,9,1,11,1,13,1,15,1,17,1,19,1,21,1,23,1,25,1,27,1,       3P      2
29,1,31,1,33,1,35,1,37,1,39,1,41,1,43,1;                               3P      3
510,189,2,1,45,47;                                                     5P      4
510,191,1,1,49;                                                        7P      5
510,193,1,1,51;                                                        9P      6
510,195,1,1,53;                                                       11P      7
510,197,1,1,55;                                                       13P      8
510,199,2,1,57,59;                                                    15P      9
510,201,1,1,61;                                                       17P     10
510,203,1,1,63;                                                       19P     11
510,205,1,1,65;                                                       21P     12
510,207,1,1,67;                                                       23P     13
510,209,2,1,69,71;                                                    25P     14
510,211,1,1,73;                                                       27P     15
510,213,1,1,75;                                                       29P     16
510,215,1,1,77;                                                       31P     17
510,217,1,1,79;                                                       33P     18
510,219,1,1,81;                                                       35P     19
510,221,1,1,83;                                                       37P     20
510,223,1,1,85;                                                       39P     21
510,225,1,1,87;                                                       41P     22
510,227,1,1,89;                                                       43P     23
508,2,0,231,1,0,0,0,231,2,0,0;                                        45P     24
508,2,0,231,3,1,0,0,231,4,1,0;                                        47P     25
508,6,0,231,5,0,0,0,231,6,0,0,0,231,7,1,0,0,231,2,1,0,0,231,1,1,      49P     26
0,0,231,7,0,0;                                                        49P     27
508,2,0,231,5,1,0,0,231,6,1,0;                                        51P     28
508,6,0,231,3,0,0,0,231,4,0,0,0,231,8,1,0,0,231,9,0,0,0,231,10,       53P     29
0,0,0,231,8,0,0;                                                      53P     30
508,4,0,231,11,1,0,0,231,12,1,0,0,231,13,0,0,0,231,14,0,0;            55P     31
508,4,0,231,15,1,0,0,231,13,1,0,0,231,16,1,0,0,231,17,1,0;            57P     32
508,2,0,231,9,1,0,0,231,10,1,0;                                       59P     33
508,4,0,231,18,1,0,0,231,19,0,0,0,231,11,0,0,0,231,20,0,0;            61P     34
508,4,0,231,21,0,0,0,231,22,1,0,0,231,17,0,0,0,231,23,0,0;            63P     35
508,6,0,231,24,0,0,0,231,23,1,0,0,231,16,0,0,0,231,12,0,0,0,231,      65P     36
19,1,0,0,231,25,0,0;                                                  65P     37
508,6,0,231,26,0,0,0,231,27,1,0,0,231,20,1,0,0,231,14,1,0,0,231,      67P     38
15,0,0,0,231,22,0,0;                                                  67P     39
508,2,0,231,28,0,0,0,231,29,0,0;                                      69P     40
508,4,0,231,30,1,0,0,231,31,1,0,0,231,32,1,0,0,231,33,1,0;            71P     41
508,8,0,231,34,0,0,0,231,25,1,0,0,231,18,0,0,0,231,27,0,0,0,231,      73P     42
35,1,0,0,231,29,1,0,0,231,28,1,0,0,231,35,0,0;                        73P     43
508,4,0,231,24,1,0,0,231,34,1,0,0,231,26,1,0,0,231,21,1,0;            75P     44
508,4,0,231,36,0,0,0,231,37,1,0,0,231,30,0,0,0,231,38,0,0;            77P     45
508,4,0,231,39,0,0,0,231,40,1,0,0,231,41,0,0,0,231,42,0,0;            79P     46
508,6,0,231,43,0,0,0,231,42,1,0,0,231,44,0,0,0,231,45,1,0,0,231,      81P     47
31,0,0,0,231,37,0,0;                                                  81P     48
508,4,0,231,45,0,0,0,231,46,0,0,0,231,47,0,0,0,231,32,0,0;            83P     49
508,6,0,231,47,1,0,0,231,48,0,0,0,231,40,0,0,0,231,49,0,0,0,231,      85P     50
38,1,0,0,231,33,0,0;                                                  85P     51
508,4,0,231,36,1,0,0,231,49,1,0,0,231,39,1,0,0,231,43,1,0;            87P     52
508,4,0,231,48,1,0,0,231,46,1,0,0,231,44,1,0,0,231,41,1,0;            89P     53
126,4,2,0,0,0,0,0.,0.,0.,1.5707963267949,1.5707963267949,             91P     54
3.14159265358979,3.14159265358979,3.14159265358979,1.,                91P     55
0.707106781186547,1.,0.707106781186547,1.,17.5,0.,247.,17.5,          91P     56
17.5,247.,1.07156594925393D-15,17.5,247.,-17.5,17.5,247.,-17.5,       91P     57
2.14313189850787D-15,247.,0.,3.14159265358979,0.,0.,0.;               91P     58
126,4,2,0,0,0,0,3.14159265358979,3.14159265358979,                    93P     59
3.14159265358979,4.71238898038469,4.71238898038469,                   93P     60
6.28318530717959,6.28318530717959,6.28318530717959,1.,                93P     61
0.707106781186547,1.,0.707106781186548,1.,-17.5,                      93P     62
2.14313189850787D-15,247.,-17.5,-17.5,247.,-3.2146978477618D-15,      93P     63
-17.5,247.,17.5,-17.5,247.,17.5,-4.28626379701574D-15,247.,           93P     64
3.14159265358979,6.28318530717959,0.,0.,0.;                           93P     65
126,4,2,0,0,0,0,0.,0.,0.,1.5707963267949,1.5707963267949,             95P     66
3.14159265358979,3.14159265358979,3.14159265358979,1.,                95P     67
0.707106781186548,1.,0.707106781186548,1.,7.5,0.,247.,7.5,7.5,        95P     68
247.,4.59242549680257D-16,7.5,247.,-7.5,7.5,247.,-7.5,                95P     69
9.18485099360515D-16,247.,0.,3.14159265358979,0.,0.,0.;               95P     70
126,4,2,0,0,0,0,3.14159265358979,3.14159265358979,                    97P     71
3.14159265358979,4.71238898038469,4.71238898038469,                   97P     72
6.28318530717959,6.28318530717959,6.28318530717959,1.,                97P     73
0.707106781186548,1.,0.707106781186547,1.,-7.5,                       97P     74
9.18485099360515D-16,247.,-7.5,-7.5,247.,-1.37772764904077D-15,       97P     75
-7.5,247.,7.5,-7.5,247.,7.5,-1.83697019872103D-15,247.,               97P     76
3.14159265358979,6.28318530717959,0.,0.,0.;                           97P     77
126,4,2,0,0,0,0,0.,0.,0.,1.5707963267949,1.5707963267949,             99P     78
3.14159265358979,3.14159265358979,3.14159265358979,1.,                99P     79
0.707106781186547,1.,0.707106781186547,1.,17.5,0.,264.,17.5,          99P     80
17.5,264.,1.07156594925393D-15,17.5,264.,-17.5,17.5,264.,-17.5,       99P     81
2.14313189850787D-15,264.,0.,3.14159265358979,0.,0.,0.;               99P     82
126,4,2,0,0,0,0,3.14159265358979,3.14159265358979,                   101P     83
3.14159265358979,4.71238898038469,4.71238898038469,                  101P     84
6.28318530717959,6.28318530717959,6.28318530717959,1.,               101P     85
0.707106781186547,1.,0.707106781186548,1.,-17.5,                     101P     86
2.14313189850787D-15,264.,-17.5,-17.5,264.,-3.2146978477618D-15,     101P     87
-17.5,264.,17.5,-17.5,264.,17.5,-4.28626379701574D-15,264.,          101P     88
3.14159265358979,6.28318530717959,0.,0.,0.;                          101P     89
126,1,1,0,0,1,0,-0.971428571428571,-0.971428571428571,0.,0.,1.,      103P     90
1.,-17.5,0.,264.,-17.5,0.,247.,-0.971428571428571,0.,0.,0.,0.;       103P     91
126,1,1,0,0,1,0,-17.3333333333333,-17.3333333333333,0.,0.,1.,1.,     105P     92
-7.5,0.,247.,-7.5,0.,117.,-17.3333333333333,0.,0.,0.,0.;             105P     93
126,4,2,0,0,0,0,0.,0.,0.,1.5707963267949,1.5707963267949,            107P     94
3.14159265358979,3.14159265358979,3.14159265358979,1.,               107P     95
0.707106781186548,1.,0.707106781186548,1.,7.5,0.,117.,7.5,-7.5,      107P     96
117.,4.59242549680257D-16,-7.5,117.,-7.5,-7.5,117.,-7.5,             107P     97
-9.18485099360515D-16,117.,0.,3.14159265358979,0.,0.,0.;             107P     98
126,4,2,0,0,0,0,3.14159265358979,3.14159265358979,                   109P     99
3.14159265358979,4.71238898038469,4.71238898038469,                  109P    100
6.28318530717959,6.28318530717959,6.28318530717959,1.,               109P    101
0.707106781186548,1.,0.707106781186547,1.,-7.5,                      109P    102
-9.18485099360515D-16,117.,-7.5,7.5,117.,-1.37772764904077D-15,      109P    103
7.5,117.,7.5,7.5,117.,7.5,1.83697019872103D-15,117.,                 109P    104
3.14159265358979,6.28318530717959,0.,0.,0.;                          109P    105
126,4,2,0,0,0,0,0.,0.,0.,1.5707963267949,1.5707963267949,            111P    106
3.14159265358979,3.14159265358979,3.14159265358979,1.,               111P    107
0.707106781186548,1.,0.707106781186548,1.,-20.,0.,62.,-20.,-20.,     111P    108
62.,-1.22464679914735D-15,-20.,62.,20.,-20.,62.,20.,                 111P    109
-2.44929359829471D-15,62.,0.,3.14159265358979,0.,0.,0.;              111P    110
126,1,1,0,0,1,0,0.,0.,5.5,5.5,1.,1.,20.,0.,62.,20.,0.,117.,0.,       113P    111
5.5,0.,0.,0.;                                                        113P    112
126,4,2,0,0,0,0,0.,0.,0.,1.5707963267949,1.5707963267949,            115P    113
3.14159265358979,3.14159265358979,3.14159265358979,1.,               115P    114
0.707106781186548,1.,0.707106781186548,1.,-20.,0.,117.,-20.,         115P    115
-20.,117.,-1.22464679914735D-15,-20.,117.,20.,-20.,117.,20.,         115P    116
-2.44929359829471D-15,117.,0.,3.14159265358979,0.,0.,0.;             115P    117
126,1,1,0,0,1,0,0.,0.,5.5,5.5,1.,1.,-20.,0.,62.,-20.,0.,117.,0.,     117P    118
5.5,0.,0.,0.;                                                        117P    119
126,1,1,0,0,1,0,2.85,2.85,4.,4.,1.,1.,-8.5,0.,117.,-20.,0.,117.,     119P    120
2.85,4.,0.,0.,0.;                                                    119P    121
126,1,1,0,0,1,0,0.,0.,1.15,1.15,1.,1.,20.,0.,117.,8.5,0.,117.,       121P    122
0.,1.15,0.,0.,0.;                                                    121P    123
126,4,2,0,0,0,0,0.,0.,0.,1.5707963267949,1.5707963267949,            123P    124
3.14159265358979,3.14159265358979,3.14159265358979,1.,               123P    125
0.707106781186548,1.,0.707106781186548,1.,8.5,0.,117.,8.5,8.5,       123P    126
117.,5.20474889637625D-16,8.5,117.,-8.5,8.5,117.,-8.5,               123P    127
1.04094977927525D-15,117.,0.,3.14159265358979,0.,0.,0.;              123P    128
126,4,2,0,0,0,0,-3.14159265358979,-3.14159265358979,                 125P    129
-3.14159265358979,-1.5707963267949,-1.5707963267949,                 125P    130
1.03587773279758D-16,1.03587773279758D-16,1.03587773279758D-16,      125P    131
1.,0.707106781186547,1.,0.707106781186548,1.,-17.5,                  125P    132
-2.14313189850787D-15,62.,-17.5,-17.5,62.,1.07156594925393D-15,      125P    133
-17.5,62.,17.5,-17.5,62.,17.5,1.81278603239576D-15,62.,              125P    134
-3.14159265358979,1.03587773279758D-16,0.,0.,0.;                     125P    135
126,1,1,0,0,1,0,0.,0.,0.25,0.25,1.,1.,20.,0.,62.,17.5,0.,62.,0.,     127P    136
0.25,0.,0.,0.;                                                       127P    137
126,1,1,0,0,1,0,3.75,3.75,4.,4.,1.,1.,-17.5,0.,62.,-20.,0.,62.,      129P    138
3.75,4.,0.,0.,0.;                                                    129P    139
126,4,2,0,0,0,0,-3.14159265358979,-3.14159265358979,                 131P    140
-3.14159265358979,-1.5707963267949,-1.5707963267949,0.,0.,0.,1.,     131P    141
0.707106781186548,1.,0.707106781186548,1.,-8.5,                      131P    142
1.04094977927525D-15,47.,-8.5,8.5,47.,5.20474889637625D-16,8.5,      131P    143
47.,8.5,8.5,47.,8.5,0.,47.,-3.14159265358979,0.,0.,0.,0.;            131P    144
126,1,1,0,0,1,0,0.,0.,7.,7.,1.,1.,-8.5,1.04094977927525D-15,47.,     133P    145
-8.5,1.04094977927525D-15,117.,0.,7.,0.,0.,0.;                       133P    146
126,1,1,0,0,1,0,0.,0.,7.,7.,1.,1.,8.5,0.,47.,8.5,0.,117.,0.,7.,      135P    147
0.,0.,0.;                                                            135P    148
126,1,1,0,0,1,0,-0.0249999999999999,-0.0249999999999999,0.875,       137P    149
0.875,1.,1.,8.5,1.404830791851D-15,47.,17.5,                         137P    150
1.81278603239576D-15,47.,-0.0249999999999999,0.875,0.,0.,0.;         137P    151
126,1,1,0,0,1,0,0.,0.,1.5,1.5,1.,1.,17.5,1.81278603239576D-15,       139P    152
47.,17.5,1.81278603239576D-15,62.,0.,1.5,0.,0.,0.;                   139P    153
126,1,1,0,0,1,0,-1.325,-1.325,-0.425,-0.425,1.,1.,-17.5,             141P    154
2.26293430277229D-16,47.,-8.5,6.34248670821995D-16,47.,-1.325,       141P    155
-0.425,0.,0.,0.;                                                     141P    156
126,1,1,0,0,1,0,0.,0.,1.5,1.5,1.,1.,-17.5,2.26293430277228D-16,      143P    157
47.,-17.5,2.26293430277228D-16,62.,0.,1.5,0.,0.,0.;                  143P    158
126,4,2,0,0,0,0,0.,0.,0.,1.5707963267949,1.5707963267949,            145P    159
3.14159265358979,3.14159265358979,3.14159265358979,1.,               145P    160
0.707106781186547,1.,0.707106781186547,1.,17.5,0.,30.,17.5,17.5,     145P    161
30.,1.07156594925393D-15,17.5,30.,-17.5,17.5,30.,-17.5,              145P    162
2.14313189850787D-15,30.,0.,3.14159265358979,0.,0.,0.;               145P    163
126,4,2,0,0,0,0,3.14159265358979,3.14159265358979,                   147P    164
3.14159265358979,4.71238898038469,4.71238898038469,                  147P    165
6.28318530717959,6.28318530717959,6.28318530717959,1.,               147P    166
0.707106781186547,1.,0.707106781186548,1.,-17.5,                     147P    167
2.14313189850787D-15,30.,-17.5,-17.5,30.,-3.2146978477618D-15,       147P    168
-17.5,30.,17.5,-17.5,30.,17.5,-4.28626379701574D-15,30.,             147P    169
3.14159265358979,6.28318530717959,0.,0.,0.;                          147P    170
126,4,2,0,0,0,0,-3.14159265358979,-3.14159265358979,                 149P    171
-3.14159265358979,-1.5707963267949,-1.5707963267949,                 149P    172
2.03664087249506D-16,2.03664087249506D-16,2.03664087249506D-16,      149P    173
1.,0.707106781186548,1.,0.707106781186548,1.,-16.,                   149P    174
-1.95943487863577D-15,30.,-16.,-16.,30.,9.79717439317883D-16,        149P    175
-16.,30.,16.,-16.,30.,16.,3.25862539599209D-15,30.,                  149P    176
-3.14159265358979,2.03664087249506D-16,0.,0.,0.;                     149P    177
126,1,1,0,0,1,0,0.,0.,0.75,0.75,1.,1.,16.,3.25862539599209D-15,      151P    178
30.,8.5,2.5797451051604D-15,30.,0.,0.75,0.,0.,0.;                    151P    179
126,4,2,0,0,0,0,3.03499424136518D-16,3.03499424136518D-16,           153P    180
3.03499424136518D-16,1.5707963267949,1.5707963267949,                153P    181
3.14159265358979,3.14159265358979,3.14159265358979,1.,               153P    182
0.707106781186547,1.,0.707106781186548,1.,8.5,                       153P    183
2.5797451051604D-15,30.,8.5,8.5,30.,-1.36690425222514D-15,8.5,       153P    184
30.,-8.5,8.5,30.,-8.5,1.04094977927525D-15,30.,                      153P    185
3.03499424136518D-16,3.14159265358979,0.,0.,0.;                      153P    186
126,1,1,0,0,1,0,0.,0.,0.75,0.75,1.,1.,-8.5,1.04094977927525D-15,     155P    187
30.,-16.,3.62069488443565D-16,30.,0.,0.75,0.,0.,0.;                  155P    188
126,4,2,0,0,0,0,0.,0.,0.,1.5707963267949,1.5707963267949,            157P    189
3.14159265358979,3.14159265358979,3.14159265358979,1.,               157P    190
0.707106781186547,1.,0.707106781186547,1.,17.5,0.,47.,17.5,17.5,     157P    191
47.,1.07156594925393D-15,17.5,47.,-17.5,17.5,47.,-17.5,              157P    192
2.14313189850787D-15,47.,0.,3.14159265358979,0.,0.,0.;               157P    193
126,1,1,0,0,1,0,-0.971428571428571,-0.971428571428571,0.,0.,1.,      159P    194
1.,-17.5,2.26293430277228D-16,47.,-17.5,0.,30.,                      159P    195
-0.971428571428571,0.,0.,0.,0.;                                      159P    196
126,4,2,0,0,0,0,-2.03664087249506D-16,-2.03664087249506D-16,         161P    197
-2.03664087249506D-16,1.5707963267949,1.5707963267949,               161P    198
3.14159265358979,3.14159265358979,3.14159265358979,1.,               161P    199
0.707106781186548,1.,0.707106781186548,1.,16.,                       161P    200
3.25862539599209D-15,0.,16.,-16.,0.,9.79717439317883D-16,-16.,       161P    201
0.,-16.,-16.,0.,-16.,-1.95943487863577D-15,0.,                       161P    202
-2.03664087249506D-16,3.14159265358979,0.,0.,0.;                     161P    203
126,1,1,0,0,1,0,0.,0.,3.,3.,1.,1.,16.,3.25862539599209D-15,0.,       163P    204
16.,3.25862539599209D-15,30.,0.,3.,0.,0.,0.;                         163P    205
126,1,1,0,0,1,0,0.,0.,3.,3.,1.,1.,-16.,3.62069488443566D-16,0.,      165P    206
-16.,3.62069488443566D-16,30.,0.,3.,0.,0.,0.;                        165P    207
126,4,2,0,0,0,0,0.,0.,0.,1.5707963267949,1.5707963267949,            167P    208
3.14159265358979,3.14159265358979,3.14159265358979,1.,               167P    209
0.707106781186548,1.,0.707106781186548,1.,-20.,0.,0.,-20.,-20.,      167P    210
0.,-1.22464679914735D-15,-20.,0.,20.,-20.,0.,20.,                    167P    211
-2.44929359829471D-15,0.,0.,3.14159265358979,0.,0.,0.;               167P    212
126,1,1,0,0,1,0,0.,0.,5.5,5.5,1.,1.,-20.,0.,0.,-20.,0.,-55.,0.,      169P    213
5.5,0.,0.,0.;                                                        169P    214
126,4,2,0,0,0,0,-3.14159265358979,-3.14159265358979,                 171P    215
-3.14159265358979,-1.5707963267949,-1.5707963267949,0.,0.,0.,1.,     171P    216
0.707106781186548,1.,0.707106781186548,1.,20.,                       171P    217
-2.44929359829471D-15,-55.,20.,-20.,-55.,-1.22464679914735D-15,      171P    218
-20.,-55.,-20.,-20.,-55.,-20.,0.,-55.,-3.14159265358979,0.,0.,       171P    219
0.,0.;                                                               171P    220
126,1,1,0,0,1,0,0.,0.,5.5,5.5,1.,1.,20.,0.,0.,20.,0.,-55.,0.,        173P    221
5.5,0.,0.,0.;                                                        173P    222
126,1,1,0,0,1,0,0.,0.,0.4,0.4,1.,1.,20.,0.,0.,16.,0.,0.,0.,0.4,      175P    223
0.,0.,0.;                                                            175P    224
126,1,1,0,0,1,0,-1.15,-1.15,0.,0.,1.,1.,8.5,0.,-55.,20.,0.,-55.,     177P    225
-1.15,0.,0.,0.,0.;                                                   177P    226
126,1,1,0,0,1,0,-5.5,-5.5,3.,3.,1.,1.,8.5,2.5797451051604D-15,       179P    227
-55.,8.5,2.5797451051604D-15,30.,-5.5,3.,0.,0.,0.;                   179P    228
126,4,2,0,0,0,0,-3.14159265358979,-3.14159265358979,                 181P    229
-3.14159265358979,-1.5707963267949,-1.5707963267949,0.,0.,0.,1.,     181P    230
0.707106781186548,1.,0.707106781186548,1.,-8.5,                      181P    231
1.04094977927525D-15,-55.,-8.5,8.5,-55.,5.20474889637625D-16,        181P    232
8.5,-55.,8.5,8.5,-55.,8.5,0.,-55.,-3.14159265358979,0.,0.,0.,0.;     181P    233
126,1,1,0,0,1,0,-3.,-3.,5.5,5.5,1.,1.,-8.5,1.04094977927525D-15,     183P    234
30.,-8.5,1.04094977927525D-15,-55.,-3.,5.5,0.,0.,0.;                 183P    235
126,1,1,0,0,1,0,-4.,-4.,-2.85,-2.85,1.,1.,-20.,0.,-55.,-8.5,0.,      185P    236
-55.,-4.,-2.85,0.,0.,0.;                                             185P    237
126,1,1,0,0,1,0,3.6,3.6,4.,4.,1.,1.,-16.,0.,0.,-20.,0.,0.,3.6,       187P    238
4.,0.,0.,0.;                                                         187P    239
128,1,1,1,1,0,0,1,0,0,-1.751,-1.751,1.751,1.751,-1.751,-1.751,       189P    240
1.751,1.751,1.,1.,1.,1.,17.51,-17.51,247.,-17.51,-17.51,247.,        189P    241
17.51,17.51,247.,-17.51,17.51,247.,-1.751,1.751,-1.751,1.751;        189P    242
128,1,8,1,2,0,1,0,0,1,0.,0.,0.971428571428571,0.971428571428571,     191P    243
-3.14159265358979,-3.14159265358979,-3.14159265358979,               191P    244
-1.5707963267949,-1.5707963267949,0.,0.,1.5707963267949,             191P    245
1.5707963267949,3.14159265358979,3.14159265358979,                   191P    246
3.14159265358979,1.,1.,0.707106781186548,0.707106781186548,1.,       191P    247
1.,0.707106781186548,0.707106781186548,1.,1.,0.707106781186548,      191P    248
0.707106781186548,1.,1.,0.707106781186548,0.707106781186548,1.,      191P    249
1.,-17.5,0.,264.,-17.5,0.,247.,-17.5,-17.5,264.,-17.5,-17.5,         191P    250
247.,0.,-17.5,264.,0.,-17.5,247.,17.5,-17.5,264.,17.5,-17.5,         191P    251
247.,17.5,0.,264.,17.5,0.,247.,17.5,17.5,264.,17.5,17.5,247.,0.,     191P    252
17.5,264.,0.,17.5,247.,-17.5,17.5,264.,-17.5,17.5,247.,-17.5,0.,     191P    253
264.,-17.5,0.,247.,0.,0.971428571428571,-3.14159265358979,           191P    254
3.14159265358979;                                                    191P    255
128,1,1,1,1,0,0,1,0,0,-1.751,-1.751,1.751,1.751,-1.751,-1.751,       193P    256
1.751,1.751,1.,1.,1.,1.,-17.51,-17.51,264.,17.51,-17.51,264.,        193P    257
-17.51,17.51,264.,17.51,17.51,264.,-1.751,1.751,-1.751,1.751;        193P    258
128,1,8,1,2,0,1,0,0,1,0.,0.,17.3333333333333,17.3333333333333,       195P    259
-3.14159265358979,-3.14159265358979,-3.14159265358979,               195P    260
-1.5707963267949,-1.5707963267949,0.,0.,1.5707963267949,             195P    261
1.5707963267949,3.14159265358979,3.14159265358979,                   195P    262
3.14159265358979,1.,1.,0.707106781186548,0.707106781186548,1.,       195P    263
1.,0.707106781186548,0.707106781186548,1.,1.,0.707106781186548,      195P    264
0.707106781186548,1.,1.,0.707106781186548,0.707106781186548,1.,      195P    265
1.,-7.5,0.,247.,-7.5,0.,117.,-7.5,-7.5,247.,-7.5,-7.5,117.,0.,       195P    266
-7.5,247.,0.,-7.5,117.,7.5,-7.5,247.,7.5,-7.5,117.,7.5,0.,247.,      195P    267
7.5,0.,117.,7.5,7.5,247.,7.5,7.5,117.,0.,7.5,247.,0.,7.5,117.,       195P    268
-7.5,7.5,247.,-7.5,7.5,117.,-7.5,0.,247.,-7.5,0.,117.,0.,            195P    269
17.3333333333333,-3.14159265358979,3.14159265358979;                 195P    270
128,1,4,1,2,0,0,0,0,0,0.,0.,2.75,2.75,0.,0.,0.,1.5707963267949,      197P    271
1.5707963267949,3.14159265358979,3.14159265358979,                   197P    272
3.14159265358979,1.,1.,0.707106781186548,0.707106781186548,1.,       197P    273
1.,0.707106781186548,0.707106781186548,1.,1.,-20.,0.,117.,-20.,      197P    274
0.,62.,-20.,-20.,117.,-20.,-20.,62.,0.,-20.,117.,0.,-20.,62.,        197P    275
20.,-20.,117.,20.,-20.,62.,20.,0.,117.,20.,0.,62.,0.,2.75,0.,        197P    276
3.14159265358979;                                                    197P    277
128,1,1,1,1,0,0,1,0,0,-2.001,-2.001,2.001,2.001,-1.426,-1.426,       199P    278
1.426,1.426,1.,1.,1.,1.,-20.01,-20.01,117.,20.01,-20.01,117.,        199P    279
-20.01,8.51,117.,20.01,8.51,117.,-2.001,2.001,-1.426,1.426;          199P    280
128,1,1,1,1,0,0,1,0,0,-2.001,-2.001,2.001,2.001,-1.426,-1.426,       201P    281
0.576,0.576,1.,1.,1.,1.,20.01,-20.01,62.,-20.01,-20.01,62.,          201P    282
20.01,0.0100000000000033,62.,-20.01,0.0100000000000022,62.,          201P    283
-2.001,2.001,-1.426,0.576;                                           201P    284
128,1,4,1,2,0,0,0,0,0,0.,0.,8.23529411764706,8.23529411764706,       203P    285
0.,0.,0.,1.5707963267949,1.5707963267949,3.14159265358979,           203P    286
3.14159265358979,3.14159265358979,1.,1.,0.707106781186548,           203P    287
0.707106781186548,1.,1.,0.707106781186548,0.707106781186548,1.,      203P    288
1.,8.5,0.,117.,8.5,0.,47.,8.5,8.5,117.,8.5,8.5,47.,0.,8.5,117.,      203P    289
0.,8.5,47.,-8.5,8.5,117.,-8.5,8.5,47.,-8.5,0.,117.,-8.5,0.,47.,      203P    290
0.,8.23529411764706,0.,3.14159265358979;                             203P    291
128,1,1,1,1,0,0,1,0,0,-0.251,-0.251,0.901,0.901,-0.001,-0.001,       205P    292
7.001,7.001,1.,1.,1.,1.,20.01,1.92656021614769D-15,46.99,8.49,       205P    293
1.40437750825039D-15,46.99,20.01,1.92656021614769D-15,117.01,        205P    294
8.49,1.40437750825039D-15,117.01,-0.251,0.901,-0.001,7.001;          205P    295
128,1,1,1,1,0,0,1,0,0,-0.001,-0.001,1.151,1.151,-0.001,-0.001,       207P    296
7.001,7.001,1.,1.,1.,1.,-8.49,6.347019544226D-16,46.99,-20.01,       207P    297
1.125192465253D-16,46.99,-8.49,6.347019544226D-16,117.01,-20.01,     207P    298
1.125192465253D-16,117.01,-0.001,1.151,-0.001,7.001;                 207P    299
128,1,1,1,1,0,0,1,0,0,-1.751,-1.751,1.751,1.751,-1.751,-1.751,       209P    300
1.751,1.751,1.,1.,1.,1.,17.51,-17.51,30.,-17.51,-17.51,30.,          209P    301
17.51,17.51,30.,-17.51,17.51,30.,-1.751,1.751,-1.751,1.751;          209P    302
128,1,8,1,2,0,1,0,0,1,0.,0.,1.82857142857143,1.82857142857143,       211P    303
-3.14159265358979,-3.14159265358979,-3.14159265358979,               211P    304
-1.5707963267949,-1.5707963267949,0.,0.,1.5707963267949,             211P    305
1.5707963267949,3.14159265358979,3.14159265358979,                   211P    306
3.14159265358979,1.,1.,0.707106781186548,0.707106781186548,1.,       211P    307
1.,0.707106781186548,0.707106781186548,1.,1.,0.707106781186548,      211P    308
0.707106781186548,1.,1.,0.707106781186548,0.707106781186548,1.,      211P    309
1.,-17.5,0.,62.,-17.5,0.,30.,-17.5,-17.5,62.,-17.5,-17.5,30.,0.,     211P    310
-17.5,62.,0.,-17.5,30.,17.5,-17.5,62.,17.5,-17.5,30.,17.5,0.,        211P    311
62.,17.5,0.,30.,17.5,17.5,62.,17.5,17.5,30.,0.,17.5,62.,0.,17.5,     211P    312
30.,-17.5,17.5,62.,-17.5,17.5,30.,-17.5,0.,62.,-17.5,0.,30.,0.,      211P    313
1.82857142857143,-3.14159265358979,3.14159265358979;                 211P    314
128,1,1,1,1,0,0,1,0,0,-1.751,-1.751,1.751,1.751,-0.001,-0.001,       213P    315
1.751,1.751,1.,1.,1.,1.,-17.51,-0.01,47.,17.51,-0.01,47.,-17.51,     213P    316
17.51,47.,17.51,17.51,47.,-1.751,1.751,-0.001,1.751;                 213P    317
128,1,4,1,2,0,0,0,0,0,0.,0.,1.875,1.875,-3.14159265358979,           215P    318
-3.14159265358979,-3.14159265358979,-1.5707963267949,                215P    319
-1.5707963267949,2.03664087249506D-16,2.03664087249506D-16,          215P    320
2.03664087249506D-16,1.,1.,0.707106781186548,0.707106781186548,      215P    321
1.,1.,0.707106781186548,0.707106781186548,1.,1.,-16.,0.,30.,         215P    322
-16.,0.,0.,-16.,-16.,30.,-16.,-16.,0.,0.,-16.,30.,0.,-16.,0.,        215P    323
16.,-16.,30.,16.,-16.,0.,16.,0.,30.,16.,0.,0.,0.,1.875,              215P    324
-3.14159265358979,2.03664087249506D-16;                              215P    325
128,1,4,1,2,0,0,0,0,0,0.,0.,2.75,2.75,-3.14159265358979,             217P    326
-3.14159265358979,-3.14159265358979,-1.5707963267949,                217P    327
-1.5707963267949,0.,0.,0.,1.,1.,0.707106781186548,                   217P    328
0.707106781186548,1.,1.,0.707106781186548,0.707106781186548,1.,      217P    329
1.,20.,0.,-55.,20.,0.,0.,20.,-20.,-55.,20.,-20.,0.,0.,-20.,-55.,     217P    330
0.,-20.,0.,-20.,-20.,-55.,-20.,-20.,0.,-20.,0.,-55.,-20.,0.,0.,      217P    331
0.,2.75,-3.14159265358979,0.;                                        217P    332
128,1,1,1,1,0,0,1,0,0,-0.001,-0.001,1.151,1.151,-3.001,-3.001,       219P    333
5.501,5.501,1.,1.,1.,1.,8.49,0.,30.01,20.01,0.,30.01,8.49,0.,        219P    334
-55.01,20.01,0.,-55.01,-0.001,1.151,-3.001,5.501;                    219P    335
128,1,4,1,2,0,0,0,0,0,-3.52941176470588,-3.52941176470588,           221P    336
6.47058823529412,6.47058823529412,-3.14159265358979,                 221P    337
-3.14159265358979,-3.14159265358979,-1.5707963267949,                221P    338
-1.5707963267949,0.,0.,0.,1.,1.,0.707106781186548,                   221P    339
0.707106781186548,1.,1.,0.707106781186548,0.707106781186548,1.,      221P    340
1.,-8.5,0.,-55.,-8.5,0.,30.,-8.5,8.5,-55.,-8.5,8.5,30.,0.,8.5,       221P    341
-55.,0.,8.5,30.,8.5,8.5,-55.,8.5,8.5,30.,8.5,0.,-55.,8.5,0.,30.,     221P    342
-3.52941176470588,6.47058823529412,-3.14159265358979,0.;             221P    343
128,1,1,1,1,0,0,1,0,0,-0.001,-0.001,1.151,1.151,-3.001,-3.001,       223P    344
5.501,5.501,1.,1.,1.,1.,-20.01,0.,30.01,-8.49,0.,30.01,-20.01,       223P    345
0.,-55.01,-8.49,0.,-55.01,-0.001,1.151,-3.001,5.501;                 223P    346
128,1,1,1,1,0,0,1,0,0,-2.001,-2.001,2.001,2.001,-1.426,-1.426,       225P    347
0.576,0.576,1.,1.,1.,1.,-20.01,-20.01,0.,20.01,-20.01,0.,-20.01,     225P    348
0.0100000000000033,0.,20.01,0.0100000000000033,0.,-2.001,2.001,      225P    349
-1.426,0.576;                                                        225P    350
128,1,1,1,1,0,0,1,0,0,-2.001,-2.001,2.001,2.001,-1.426,-1.426,       227P    351
1.426,1.426,1.,1.,1.,1.,20.01,-20.01,-55.,-20.01,-20.01,-55.,        227P    352
20.01,8.51,-55.,-20.01,8.51,-55.,-2.001,2.001,-1.426,1.426;          227P    353
502,34,17.5,0.,247.,-17.5,0.,247.,7.5,0.,247.,-7.5,0.,247.,17.5,     229P    354
0.,264.,-17.5,0.,264.,-7.5,0.,117.,7.5,0.,117.,-20.,0.,62.,20.,      229P    355
0.,62.,20.,0.,117.,-20.,0.,117.,-8.5,0.,117.,8.5,0.,117.,-17.5,      229P    356
2.26293430277229D-16,62.,17.5,1.81278603239576D-15,62.,-8.5,         229P    357
1.04094977927525D-15,47.,8.5,0.,47.,17.5,0.,47.,-17.5,               229P    358
2.26293430277228D-16,47.,17.5,0.,30.,-17.5,0.,30.,-16.,              229P    359
3.62069488443566D-16,30.,16.,3.25862539599209D-15,30.,8.5,           229P    360
2.5797451051604D-15,30.,-8.5,1.04094977927525D-15,30.,16.,           229P    361
3.25862539599209D-15,0.,-16.,3.62069488443566D-16,0.,-20.,0.,0.,     229P    362
20.,0.,0.,-20.,0.,-55.,20.,0.,-55.,8.5,0.,-55.,-8.5,                 229P    363
1.04094977927525D-15,-55.;                                           229P    364
504,49,91,229,1,229,2,93,229,2,229,1,95,229,3,229,4,97,229,4,        231P    365
229,3,99,229,5,229,6,101,229,6,229,5,103,229,6,229,2,105,229,4,      231P    366
229,7,107,229,8,229,7,109,229,7,229,8,111,229,9,229,10,113,229,      231P    367
10,229,11,115,229,12,229,11,117,229,9,229,12,119,229,13,229,12,      231P    368
121,229,11,229,14,123,229,14,229,13,125,229,15,229,16,127,229,       231P    369
10,229,16,129,229,15,229,9,131,229,17,229,18,133,229,17,229,13,      231P    370
135,229,18,229,14,137,229,18,229,19,139,229,19,229,16,141,229,       231P    371
20,229,17,143,229,20,229,15,145,229,21,229,22,147,229,22,229,21,     231P    372
149,229,23,229,24,151,229,24,229,25,153,229,25,229,26,155,229,       231P    373
26,229,23,157,229,19,229,20,159,229,20,229,22,161,229,27,229,28,     231P    374
163,229,27,229,24,165,229,28,229,23,167,229,29,229,30,169,229,       231P    375
29,229,31,171,229,32,229,31,173,229,30,229,32,175,229,30,229,27,     231P    376
177,229,33,229,32,179,229,33,229,25,181,229,34,229,33,183,229,       231P    377
26,229,34,185,229,31,229,34,187,229,28,229,29;                       231P    378
406,1,24HТвердое тело1;                                   233P    379
314,74.9019607843137,74.9019607843137,74.9019607843137,;             235P    380
S      1G      3D    236P    380                                        T      1
